<svg xmlns="http://www.w3.org/2000/svg" width="42" height="71" viewBox="0 0 42 71" fill="none"><path d="M0 0V59.7868L21 71L42 59.7868V0H0Z" fill="#002171"></path><path d="M39.2128 63.4466V64.3372H38.8374V63.4466H38.4305V63.088H39.6238V63.4466H39.2128ZM40.9154 64.3372V63.8224L40.6313 64.3237H40.4628L40.1788 63.8224V64.3372H39.8034V63.088H40.1226L40.5473 63.8433L40.972 63.088H41.2912V64.3372H40.9154Z" fill="#002171"></path><path d="M42 0H0V41.6422H42V0Z" fill="#FF1628"></path><path d="M10.4496 6.43581V6.99954C10.4496 8.04372 10.1125 8.88958 9.43845 9.53659C8.76435 10.1841 7.89022 10.5079 6.82657 10.5079C5.6889 10.5079 4.74127 10.1425 3.99367 9.41166C3.24607 8.67043 2.87753 7.77252 2.87753 6.71793C2.87753 5.66334 3.24608 4.75502 3.98318 4.01379C4.73077 3.27256 5.6469 2.90715 6.74205 2.90715C8.12175 2.90715 9.32242 3.57551 9.954 4.60927L8.71132 5.31927C8.36377 4.72431 7.60567 4.30633 6.73155 4.30633C6.02595 4.30633 5.44688 4.53588 4.9938 4.99551C4.54125 5.44472 4.3197 6.01886 4.3197 6.71845C4.3197 7.41804 4.55122 7.98177 5.0043 8.43099C5.46788 8.87968 6.07845 9.09935 6.83655 9.09935C7.9632 9.09935 8.7213 8.57726 8.98485 7.71058H6.75255V6.43685H10.4491L10.4496 6.43581Z" fill="white"></path><path d="M12.6257 6.03916C12.8657 5.37081 13.4662 5.03663 14.1466 5.03663V6.54043C13.7566 6.48838 13.3964 6.57166 13.0861 6.79133C12.7759 7.01047 12.6257 7.36547 12.6257 7.86674V10.3621H11.3353V5.14125H12.6257V6.03916Z" fill="white"></path><path d="M16.3265 8.30502C16.5055 8.96297 17.0005 9.28674 17.8111 9.28674C18.3272 9.28674 18.7273 9.10924 18.9908 8.76465L20.086 9.39084C19.5699 10.1321 18.8013 10.5079 17.7901 10.5079C16.916 10.5079 16.2209 10.2466 15.6943 9.72502C15.1678 9.20293 14.9042 8.54498 14.9042 7.7517C14.9042 6.95842 15.1678 6.31088 15.6838 5.78879C16.1999 5.25629 16.874 4.99499 17.6846 4.99499C18.4532 4.99499 19.0958 5.25629 19.5909 5.78879C20.0965 6.32129 20.349 6.96883 20.349 7.7517C20.349 7.9292 20.328 8.1067 20.2965 8.30502H16.3265ZM18.9908 7.26084C18.8328 6.55084 18.3062 6.20625 17.6851 6.20625C16.9585 6.20625 16.4635 6.59249 16.3054 7.26084H18.9908Z" fill="white"></path><path d="M25.2467 5.14125H26.6054V10.3621H25.2467V9.74584C24.8362 10.2575 24.2676 10.5079 23.53 10.5079C22.7923 10.5079 22.2243 10.2466 21.7187 9.71409C21.2236 9.18159 20.9711 8.52364 20.9711 7.75118C20.9711 6.97872 21.2242 6.33118 21.7187 5.79868C22.2243 5.26618 22.8244 4.99446 23.53 4.99446C24.2356 4.99446 24.8356 5.24484 25.2467 5.75652V5.14073V5.14125ZM23.783 9.22375C24.2046 9.22375 24.5516 9.0879 24.8257 8.8167C25.1097 8.53457 25.2467 8.17957 25.2467 7.7517C25.2467 7.32383 25.1097 6.96883 24.8257 6.69711C24.5516 6.41499 24.2046 6.27965 23.783 6.27965C23.3615 6.27965 23.0144 6.41551 22.7404 6.69711C22.4663 6.96883 22.3298 7.32383 22.3298 7.7517C22.3298 8.17957 22.4668 8.53457 22.7404 8.8167C23.0139 9.0879 23.3615 9.22375 23.783 9.22375Z" fill="white"></path><path d="M31.0606 6.43581H29.8704V8.60745C29.8704 9.17118 30.2809 9.18159 31.0606 9.13995V10.3616C29.1963 10.5704 28.5117 10.0379 28.5117 8.60745V6.43581H27.5956V5.14125H28.5117V4.08666L29.8704 3.67961V5.14125H31.0606V6.43581Z" fill="white"></path><path d="M6.59557 12.2329C7.30117 12.2329 7.90125 12.4729 8.38582 12.9429C8.8704 13.413 9.11242 13.9975 9.11242 14.6867C9.11242 15.3759 8.8704 15.9604 8.38582 16.4305C7.90125 16.9005 7.30117 17.1405 6.59557 17.1405H5.3004V19.5422H3.8472V12.2329H6.5961H6.59557ZM6.59557 15.7933C7.21665 15.7933 7.66972 15.3129 7.66972 14.6867C7.66972 14.0605 7.21717 13.5801 6.59557 13.5801H5.3004V15.7933H6.59557Z" fill="white"></path><path d="M11.4613 12.3006H10.1026V19.5422H11.4613V12.3006Z" fill="white"></path><path d="M16.9165 14.3213H18.2752V19.5417H16.9165V18.9254C16.506 19.437 15.9374 19.6874 15.1998 19.6874C14.4622 19.6874 13.8941 19.4261 13.3885 18.8941C12.8935 18.3616 12.6409 17.7037 12.6409 16.9312C12.6409 16.1587 12.8935 15.5112 13.3885 14.9787C13.8941 14.4462 14.4942 14.1745 15.1998 14.1745C15.9054 14.1745 16.5055 14.4249 16.9165 14.9365V14.3208V14.3213ZM15.4528 18.4038C15.8744 18.4038 16.2215 18.2679 16.4955 17.9967C16.7795 17.7146 16.9165 17.3596 16.9165 16.9317C16.9165 16.5039 16.7795 16.1489 16.4955 15.8771C16.2215 15.595 15.8744 15.4597 15.4528 15.4597C15.0313 15.4597 14.6842 15.5955 14.4102 15.8771C14.1362 16.1489 13.9997 16.5039 13.9997 16.9317C13.9997 17.3596 14.1367 17.7146 14.4102 17.9967C14.6837 18.2679 15.0318 18.4038 15.4528 18.4038Z" fill="white"></path><path d="M20.2346 18.8946C19.708 18.3621 19.4444 17.7146 19.4444 16.9317C19.4444 16.1489 19.708 15.5013 20.2346 14.9688C20.7716 14.4363 21.4352 14.1755 22.2248 14.1755C23.2465 14.1755 24.1521 14.6976 24.5837 15.5227L23.415 16.2014C23.2045 15.7736 22.7514 15.5018 22.2143 15.5018C21.4037 15.5018 20.8031 16.0968 20.8031 16.9323C20.8031 17.3393 20.9401 17.6839 21.2032 17.9556C21.4662 18.2164 21.8032 18.3523 22.2143 18.3523C22.7619 18.3523 23.215 18.0909 23.4255 17.6631L24.6052 18.3314C24.1421 19.1565 23.2465 19.689 22.2253 19.689C21.4357 19.689 20.7721 19.4277 20.2351 18.8952" fill="white"></path><path d="M26.7745 17.4851C26.9535 18.143 27.4486 18.4668 28.2592 18.4668C28.7752 18.4668 29.1753 18.2893 29.4388 17.9447L30.534 18.5709C30.0179 19.3121 29.2493 19.6879 28.2382 19.6879C27.364 19.6879 26.6689 19.4266 26.1424 18.9051C25.6158 18.383 25.3522 17.725 25.3522 16.9317C25.3522 16.1384 25.6158 15.4909 26.1319 14.9688C26.6479 14.4363 27.322 14.175 28.1326 14.175C28.9012 14.175 29.5438 14.4358 30.0389 14.9688C30.5445 15.5013 30.797 16.1489 30.797 16.9317C30.797 17.1092 30.776 17.2867 30.7445 17.4851H26.7745ZM29.4388 16.4409C29.2808 15.7309 28.7542 15.3863 28.1332 15.3863C27.4066 15.3863 26.9115 15.7725 26.7535 16.4409H29.4388Z" fill="white"></path><path d="M8.3013 21.7778V23.0875H6.31102V28.7217H4.85782V23.0875H2.87753V21.7778H8.3013Z" fill="white"></path><path d="M10.5651 28.868C9.786 28.868 9.1224 28.6066 8.58532 28.0742C8.04825 27.5417 7.7847 26.8837 7.7847 26.1112C7.7847 25.3388 8.04825 24.6912 8.58532 24.1587C9.1224 23.6262 9.786 23.3545 10.5651 23.3545C11.3442 23.3545 12.0078 23.6257 12.5449 24.1587C13.0819 24.6912 13.356 25.3388 13.356 26.1112C13.356 26.8837 13.0825 27.5417 12.5449 28.0742C12.0078 28.6066 11.3442 28.868 10.5651 28.868ZM10.5651 27.5521C10.9756 27.5521 11.3127 27.4162 11.5867 27.145C11.8603 26.8733 11.9973 26.5287 11.9973 26.1112C11.9973 25.6938 11.8603 25.3492 11.5867 25.0775C11.3127 24.8063 10.9762 24.6704 10.5651 24.6704C10.154 24.6704 9.8175 24.8063 9.54345 25.0775C9.2799 25.3492 9.1434 25.6933 9.1434 26.1112C9.1434 26.5292 9.28043 26.8733 9.54345 27.145C9.81697 27.4162 10.154 27.5521 10.5651 27.5521Z" fill="white"></path><path d="M5.14132 38.3291L3.07702 31.0198H4.60372L6.01493 36.439L7.55265 31.0198H8.79532L10.3435 36.439L11.7547 31.0198H13.2814L11.2177 38.3291H9.56392L8.17373 33.5048L6.79455 38.3291H5.14132Z" fill="white"></path><path d="M15.9364 38.4753C15.1573 38.4753 14.4937 38.214 13.9566 37.6815C13.4195 37.149 13.156 36.4911 13.156 35.7186C13.156 34.9462 13.4195 34.2986 13.9566 33.7661C14.4937 33.2336 15.1573 32.9619 15.9364 32.9619C16.7155 32.9619 17.3791 33.2331 17.9161 33.7661C18.4532 34.2986 18.7273 34.9462 18.7273 35.7186C18.7273 36.4911 18.4538 37.149 17.9161 37.6815C17.3791 38.214 16.7155 38.4753 15.9364 38.4753ZM15.9364 37.1594C16.3469 37.1594 16.684 37.0236 16.958 36.7524C17.2316 36.4807 17.3686 36.1366 17.3686 35.7186C17.3686 35.3006 17.2316 34.9566 16.958 34.6849C16.684 34.4137 16.3474 34.2778 15.9364 34.2778C15.5253 34.2778 15.1888 34.4137 14.9147 34.6849C14.6512 34.9566 14.5147 35.3006 14.5147 35.7186C14.5147 36.1366 14.6517 36.4807 14.9147 36.7524C15.1882 37.0236 15.5253 37.1594 15.9364 37.1594Z" fill="white"></path><path d="M21.0441 34.0061C21.2966 33.3377 21.9287 33.0035 22.6448 33.0035V34.5074C22.2337 34.4553 21.8547 34.5386 21.5281 34.7582C21.2016 34.9774 21.0436 35.3324 21.0436 35.8337V38.3291H19.6849V33.1082H21.0436V34.0061H21.0441Z" fill="white"></path><path d="M28.5007 38.3291H26.9209L25.0042 35.9586V38.3291H23.646V31.0198H25.0042V35.4053L26.8154 33.1082H28.4371L26.3209 35.6874L28.5007 38.3291Z" fill="white"></path><path d="M28.9963 37.388C28.9963 36.7337 29.5218 36.2074 30.187 36.2074C30.8521 36.2074 31.3777 36.7284 31.3777 37.3827C31.3777 38.0371 30.8521 38.5581 30.187 38.5581C29.5218 38.5581 28.9963 38.0527 28.9963 37.388ZM31.163 37.3827C31.163 36.8029 30.755 36.399 30.187 36.399C29.6189 36.399 29.2105 36.8086 29.2105 37.388C29.2105 37.9673 29.6394 38.3665 30.187 38.3665C30.7345 38.3665 31.163 37.9626 31.163 37.3827ZM29.779 36.7873H30.1922C30.4657 36.7873 30.6427 36.8992 30.6427 37.1381V37.1433C30.6427 37.3187 30.5408 37.4145 30.4012 37.4572L30.7125 37.9517H30.4442L30.1597 37.4999H30.0363V37.9517H29.779V36.7873ZM30.187 37.3244C30.3208 37.3244 30.3907 37.2662 30.3907 37.1542V37.149C30.3907 37.0267 30.3156 36.984 30.187 36.984H30.0368V37.3244H30.187Z" fill="white"></path><path d="M4.59165 48.2217C4.59165 46.5331 5.85427 45.2235 7.61565 45.2235C8.6793 45.2235 9.618 45.7591 10.1162 46.5826L9.12765 47.151C8.8452 46.6403 8.2803 46.327 7.61565 46.327C6.47745 46.327 5.72985 47.1093 5.72985 48.2217C5.72985 49.3341 6.47745 50.1081 7.61565 50.1081C8.2803 50.1081 8.8536 49.7953 9.12765 49.2924L10.1162 49.8608C9.62587 50.6848 8.68717 51.2199 7.61565 51.2199C5.85427 51.2199 4.59165 49.902 4.59165 48.2217Z" fill="white"></path><path d="M12.642 50.2559C13.0573 50.2559 13.3896 50.0831 13.5723 49.8442L14.4365 50.3387C14.0458 50.8988 13.4227 51.2199 12.6252 51.2199C11.2292 51.2199 10.3488 50.2726 10.3488 49.0452C10.3488 47.8178 11.2376 46.8704 12.5422 46.8704C13.7718 46.8704 14.6444 47.8344 14.6444 49.0452C14.6444 49.2019 14.6275 49.3419 14.6029 49.4819H11.4707C11.6203 50.0258 12.0771 50.2564 12.642 50.2564V50.2559ZM13.5723 48.6579C13.4395 48.065 12.9906 47.8261 12.5422 47.8261C11.9689 47.8261 11.5783 48.1311 11.4539 48.6579H13.5723Z" fill="white"></path><path d="M17.5193 46.9032V48.0895C16.9627 48.0234 16.2566 48.2706 16.2566 49.1357V51.1044H15.1851V46.9854H16.2566V47.6939C16.4724 47.1338 16.9958 46.9032 17.5193 46.9032Z" fill="white"></path><path d="M19.8203 48.0072V49.7208C19.8203 50.1659 20.1442 50.1737 20.759 50.1409V51.1049C19.2554 51.2699 18.7483 50.8332 18.7483 49.7208V48.0072H18.0253V46.986H18.7483V46.1542L19.8198 45.833V46.9865H20.7585V48.0078H19.8198L19.8203 48.0072Z" fill="white"></path><path d="M21.4321 45.8408C21.4321 45.4868 21.7313 45.1818 22.0883 45.1818C22.4453 45.1818 22.753 45.4868 22.753 45.8408C22.753 46.1948 22.4537 46.4915 22.0883 46.4915C21.7229 46.4915 21.4321 46.1948 21.4321 45.8408ZM21.5565 46.986H22.628V51.1049H21.5565V46.986Z" fill="white"></path><path d="M24.9795 46.9448V46.986H25.8604V48.0072H24.9795V51.1044H23.908V48.0072H23.31V46.986H23.908V46.9448C23.908 45.808 24.5395 45.1407 25.8604 45.2235V46.2447C25.3039 46.2036 24.9795 46.3848 24.9795 46.9448Z" fill="white"></path><path d="M26.4085 45.8408C26.4085 45.4868 26.7078 45.1818 27.0648 45.1818C27.4218 45.1818 27.7294 45.4868 27.7294 45.8408C27.7294 46.1948 27.4302 46.4915 27.0648 46.4915C26.6994 46.4915 26.4085 46.1948 26.4085 45.8408ZM26.533 46.986H27.6045V51.1049H26.533V46.986Z" fill="white"></path><path d="M30.5623 50.2559C30.9776 50.2559 31.3099 50.0831 31.4926 49.8442L32.3568 50.3387C31.9662 50.8988 31.343 51.2199 30.5455 51.2199C29.1496 51.2199 28.2691 50.2726 28.2691 49.0452C28.2691 47.8178 29.158 46.8704 30.4626 46.8704C31.6921 46.8704 32.5647 47.8344 32.5647 49.0452C32.5647 49.2019 32.5479 49.3419 32.5232 49.4819H29.3911C29.5407 50.0258 29.9974 50.2564 30.5623 50.2564V50.2559ZM31.4926 48.6579C31.3598 48.065 30.9109 47.8261 30.4626 47.8261C29.8893 47.8261 29.4987 48.1311 29.3743 48.6579H31.4926Z" fill="white"></path><path d="M37.4083 51.1049H36.3368V50.6187C36.0376 50.9977 35.5976 51.2199 34.9907 51.2199C33.8772 51.2199 32.9637 50.2726 32.9637 49.0452C32.9637 47.8178 33.8777 46.8704 34.9907 46.8704C35.5971 46.8704 36.0376 47.0927 36.3368 47.4716V45.338H37.4083V51.1049ZM36.3368 49.0452C36.3368 48.3534 35.8465 47.8839 35.1902 47.8839C34.534 47.8839 34.0352 48.3534 34.0352 49.0452C34.0352 49.737 34.5256 50.2065 35.1902 50.2065C35.8549 50.2065 36.3368 49.737 36.3368 49.0452Z" fill="white"></path><path d="M3.57964 56.3343C3.57964 56.0686 3.61971 55.8457 3.69987 55.6654C3.75968 55.5325 3.84103 55.4133 3.94391 55.3078C4.04799 55.2022 4.16163 55.1239 4.28485 55.0729C4.44874 55.0041 4.63776 54.9697 4.85189 54.9697C5.23949 54.9697 5.54933 55.0889 5.78141 55.3273C6.01468 55.5657 6.13132 55.8973 6.13132 56.3219C6.13132 56.7429 6.01588 57.0727 5.785 57.3111C5.55411 57.5483 5.24547 57.6669 4.85907 57.6669C4.46788 57.6669 4.15685 57.5489 3.92596 57.3129C3.69508 57.0756 3.57964 56.7495 3.57964 56.3343ZM4.12694 56.3165C4.12694 56.6119 4.19573 56.836 4.3333 56.9891C4.47087 57.1409 4.64553 57.2168 4.85728 57.2168C5.06902 57.2168 5.24248 57.1415 5.37766 56.9908C5.51404 56.839 5.58223 56.6119 5.58223 56.3094C5.58223 56.0105 5.51583 55.7875 5.38304 55.6405C5.25145 55.4934 5.0762 55.4198 4.85728 55.4198C4.63835 55.4198 4.4619 55.4946 4.32792 55.644C4.19393 55.7923 4.12694 56.0165 4.12694 56.3165Z" fill="white"></path><path d="M8.23081 56.6635L8.74581 56.8254C8.66686 57.11 8.53527 57.3218 8.35104 57.4605C8.168 57.5981 7.93533 57.6669 7.653 57.6669C7.30369 57.6669 7.01658 57.5489 6.79167 57.3129C6.56677 57.0756 6.45432 56.7518 6.45432 56.3414C6.45432 55.9073 6.56737 55.5705 6.79347 55.3309C7.01957 55.0901 7.31685 54.9697 7.6853 54.9697C8.0071 54.9697 8.26849 55.064 8.46947 55.2526C8.5891 55.3641 8.67882 55.5242 8.73864 55.733L8.21287 55.8575C8.18176 55.7223 8.11656 55.6156 8.01727 55.5373C7.91918 55.459 7.79955 55.4198 7.65839 55.4198C7.46339 55.4198 7.30488 55.4892 7.18286 55.628C7.06204 55.7668 7.00162 55.9915 7.00162 56.3023C7.00162 56.632 7.06144 56.8669 7.18107 57.0068C7.3007 57.1468 7.45621 57.2168 7.64762 57.2168C7.78878 57.2168 7.9102 57.1723 8.01189 57.0834C8.11357 56.9944 8.18655 56.8544 8.23081 56.6635Z" fill="white"></path><path d="M9.79556 57.6224V55.4554H9.01498V55.0142H11.1055V55.4554H10.3267V57.6224H9.79556Z" fill="white"></path><path d="M14.0645 57.1581V57.6224H12.297C12.3161 57.4469 12.3736 57.2808 12.4693 57.1243C12.565 56.9665 12.754 56.7578 13.0363 56.498C13.2636 56.2881 13.403 56.1457 13.4544 56.071C13.5238 55.9678 13.5585 55.8658 13.5585 55.765C13.5585 55.6535 13.528 55.5681 13.467 55.5088C13.4072 55.4483 13.324 55.4181 13.2175 55.4181C13.1123 55.4181 13.0285 55.4495 12.9663 55.5124C12.9041 55.5752 12.8682 55.6796 12.8587 55.8255L12.3562 55.7757C12.3861 55.5005 12.48 55.303 12.6379 55.1832C12.7958 55.0634 12.9932 55.0035 13.2301 55.0035C13.4897 55.0035 13.6937 55.0729 13.842 55.2117C13.9903 55.3505 14.0645 55.523 14.0645 55.7294C14.0645 55.8468 14.043 55.9589 13.9999 56.0657C13.958 56.1712 13.8911 56.2821 13.7989 56.3984C13.7379 56.4755 13.6279 56.5864 13.4688 56.7311C13.3097 56.8758 13.2086 56.9719 13.1655 57.0193C13.1236 57.0667 13.0895 57.113 13.0632 57.1581H14.0645Z" fill="white"></path><path d="M15.2596 55.0035C15.5144 55.0035 15.7136 55.0937 15.8572 55.274C16.0282 55.4875 16.1138 55.8415 16.1138 56.3361C16.1138 56.8295 16.0276 57.1842 15.8554 57.4C15.713 57.578 15.5144 57.6669 15.2596 57.6669C15.0036 57.6669 14.7972 57.5697 14.6405 57.3751C14.4838 57.1794 14.4055 56.8313 14.4055 56.3308C14.4055 55.8397 14.4916 55.4863 14.6639 55.2704C14.8062 55.0925 15.0048 55.0035 15.2596 55.0035ZM15.2596 55.4181C15.1986 55.4181 15.1442 55.4376 15.0963 55.4768C15.0485 55.5147 15.0114 55.5835 14.9851 55.6832C14.9504 55.8124 14.933 56.0301 14.933 56.3361C14.933 56.6421 14.9486 56.8527 14.9797 56.9677C15.0108 57.0816 15.0497 57.1575 15.0963 57.1954C15.1442 57.2334 15.1986 57.2524 15.2596 57.2524C15.3206 57.2524 15.375 57.2334 15.4229 57.1954C15.4708 57.1563 15.5078 57.0869 15.5342 56.9873C15.5688 56.8592 15.5862 56.6421 15.5862 56.3361C15.5862 56.0301 15.5706 55.8202 15.5395 55.7063C15.5084 55.5912 15.469 55.5147 15.4211 55.4768C15.3744 55.4376 15.3206 55.4181 15.2596 55.4181Z" fill="white"></path><path d="M18.1558 57.1581V57.6224H16.3883C16.4074 57.4469 16.4649 57.2808 16.5606 57.1243C16.6563 56.9665 16.8453 56.7578 17.1276 56.498C17.3549 56.2881 17.4943 56.1457 17.5457 56.071C17.6151 55.9678 17.6498 55.8658 17.6498 55.765C17.6498 55.6535 17.6193 55.5681 17.5583 55.5088C17.4985 55.4483 17.4153 55.4181 17.3088 55.4181C17.2036 55.4181 17.1198 55.4495 17.0576 55.5124C16.9954 55.5752 16.9595 55.6796 16.95 55.8255L16.4475 55.7757C16.4774 55.5005 16.5713 55.303 16.7292 55.1832C16.8872 55.0634 17.0845 55.0035 17.3214 55.0035C17.581 55.0035 17.785 55.0729 17.9333 55.2117C18.0817 55.3505 18.1558 55.523 18.1558 55.7294C18.1558 55.8468 18.1343 55.9589 18.0912 56.0657C18.0494 56.1712 17.9824 56.2821 17.8902 56.3984C17.8292 56.4755 17.7192 56.5864 17.5601 56.7311C17.401 56.8758 17.2999 56.9719 17.2568 57.0193C17.2149 57.0667 17.1808 57.113 17.1545 57.1581H18.1558Z" fill="white"></path><path d="M18.4806 56.9303L18.9687 56.8716C18.9843 56.995 19.0261 57.0893 19.0943 57.1545C19.1625 57.2198 19.245 57.2524 19.3419 57.2524C19.446 57.2524 19.5333 57.2132 19.6039 57.1349C19.6757 57.0567 19.7116 56.9511 19.7116 56.8183C19.7116 56.6925 19.6775 56.5929 19.6093 56.5194C19.5411 56.4458 19.458 56.4091 19.3599 56.4091C19.2953 56.4091 19.2181 56.4215 19.1284 56.4464L19.184 56.039C19.3204 56.0425 19.4245 56.0135 19.4963 55.9518C19.568 55.889 19.6039 55.8059 19.6039 55.7027C19.6039 55.615 19.5776 55.545 19.525 55.4928C19.4723 55.4406 19.4024 55.4145 19.315 55.4145C19.2289 55.4145 19.1553 55.4442 19.0943 55.5035C19.0333 55.5628 18.9962 55.6494 18.9831 55.7632L18.5183 55.6849C18.5506 55.5272 18.599 55.4015 18.6636 55.3078C18.7294 55.2129 18.8204 55.1387 18.9364 55.0854C19.0536 55.0308 19.1846 55.0035 19.3294 55.0035C19.577 55.0035 19.7756 55.0818 19.9251 55.2384C20.0484 55.3665 20.11 55.5112 20.11 55.6725C20.11 55.9014 19.9838 56.0841 19.7313 56.2205C19.8821 56.2525 20.0023 56.3242 20.092 56.4357C20.1829 56.5472 20.2284 56.6819 20.2284 56.8396C20.2284 57.0685 20.1441 57.2636 19.9754 57.4249C19.8067 57.5863 19.5968 57.6669 19.3455 57.6669C19.1075 57.6669 18.9101 57.5993 18.7534 57.4641C18.5967 57.3277 18.5057 57.1498 18.4806 56.9303Z" fill="white"></path><path d="M20.5945 56.9268V56.4268H21.585V56.9268H20.5945Z" fill="white"></path><path d="M21.7716 56.3343C21.7716 56.0686 21.8117 55.8457 21.8918 55.6654C21.9516 55.5325 22.033 55.4133 22.1359 55.3078C22.24 55.2022 22.3536 55.1239 22.4768 55.0729C22.6407 55.0041 22.8297 54.9697 23.0439 54.9697C23.4315 54.9697 23.7413 55.0889 23.9734 55.3273C24.2067 55.5657 24.3233 55.8973 24.3233 56.3219C24.3233 56.7429 24.2078 57.0727 23.977 57.3111C23.7461 57.5483 23.4374 57.6669 23.051 57.6669C22.6599 57.6669 22.3488 57.5489 22.1179 57.3129C21.887 57.0756 21.7716 56.7495 21.7716 56.3343ZM22.3189 56.3165C22.3189 56.6119 22.3877 56.836 22.5253 56.9891C22.6628 57.1409 22.8375 57.2168 23.0492 57.2168C23.261 57.2168 23.4344 57.1415 23.5696 56.9908C23.706 56.839 23.7742 56.6119 23.7742 56.3094C23.7742 56.0105 23.7078 55.7875 23.575 55.6405C23.4434 55.4934 23.2682 55.4198 23.0492 55.4198C22.8303 55.4198 22.6539 55.4946 22.5199 55.644C22.3859 55.7923 22.3189 56.0165 22.3189 56.3165Z" fill="white"></path><path d="M26.4228 56.6635L26.9378 56.8254C26.8588 57.11 26.7272 57.3218 26.543 57.4605C26.36 57.5981 26.1273 57.6669 25.845 57.6669C25.4957 57.6669 25.2085 57.5489 24.9836 57.3129C24.7587 57.0756 24.6463 56.7518 24.6463 56.3414C24.6463 55.9073 24.7593 55.5705 24.9854 55.3309C25.2115 55.0901 25.5088 54.9697 25.8773 54.9697C26.1991 54.9697 26.4605 55.064 26.6614 55.2526C26.7811 55.3641 26.8708 55.5242 26.9306 55.733L26.4048 55.8575C26.3737 55.7223 26.3085 55.6156 26.2092 55.5373C26.1111 55.459 25.9915 55.4198 25.8504 55.4198C25.6554 55.4198 25.4968 55.4892 25.3748 55.628C25.254 55.7668 25.1936 55.9915 25.1936 56.3023C25.1936 56.632 25.2534 56.8669 25.373 57.0068C25.4927 57.1468 25.6482 57.2168 25.8396 57.2168C25.9807 57.2168 26.1022 57.1723 26.2039 57.0834C26.3055 56.9944 26.3785 56.8544 26.4228 56.6635Z" fill="white"></path><path d="M27.9875 57.6224V55.4554H27.2069V55.0142H29.2975V55.4554H28.5187V57.6224H27.9875Z" fill="white"></path><path d="M32.2565 57.1581V57.6224H30.489C30.5081 57.4469 30.5655 57.2808 30.6612 57.1243C30.7569 56.9665 30.9459 56.7578 31.2283 56.498C31.4556 56.2881 31.5949 56.1457 31.6464 56.071C31.7158 55.9678 31.7505 55.8658 31.7505 55.765C31.7505 55.6535 31.7199 55.5681 31.6589 55.5088C31.5991 55.4483 31.516 55.4181 31.4095 55.4181C31.3042 55.4181 31.2205 55.4495 31.1583 55.5124C31.0961 55.5752 31.0602 55.6796 31.0506 55.8255L30.5482 55.7757C30.5781 55.5005 30.672 55.303 30.8299 55.1832C30.9878 55.0634 31.1852 55.0035 31.4221 55.0035C31.6817 55.0035 31.8856 55.0729 32.034 55.2117C32.1823 55.3505 32.2565 55.523 32.2565 55.7294C32.2565 55.8468 32.2349 55.9589 32.1919 56.0657C32.15 56.1712 32.083 56.2821 31.9909 56.3984C31.9299 56.4755 31.8198 56.5864 31.6607 56.7311C31.5016 56.8758 31.4005 56.9719 31.3575 57.0193C31.3156 57.0667 31.2815 57.113 31.2552 57.1581H32.2565Z" fill="white"></path><path d="M33.4516 55.0035C33.7064 55.0035 33.9056 55.0937 34.0491 55.274C34.2202 55.4875 34.3057 55.8415 34.3057 56.3361C34.3057 56.8295 34.2196 57.1842 34.0473 57.4C33.905 57.578 33.7064 57.6669 33.4516 57.6669C33.1956 57.6669 32.9892 57.5697 32.8325 57.3751C32.6758 57.1794 32.5974 56.8313 32.5974 56.3308C32.5974 55.8397 32.6836 55.4863 32.8558 55.2704C32.9982 55.0925 33.1968 55.0035 33.4516 55.0035ZM33.4516 55.4181C33.3906 55.4181 33.3361 55.4376 33.2883 55.4768C33.2404 55.5147 33.2033 55.5835 33.177 55.6832C33.1423 55.8124 33.125 56.0301 33.125 56.3361C33.125 56.6421 33.1405 56.8527 33.1716 56.9677C33.2027 57.0816 33.2416 57.1575 33.2883 57.1954C33.3361 57.2334 33.3906 57.2524 33.4516 57.2524C33.5126 57.2524 33.567 57.2334 33.6149 57.1954C33.6627 57.1563 33.6998 57.0869 33.7261 56.9873C33.7608 56.8592 33.7782 56.6421 33.7782 56.3361C33.7782 56.0301 33.7626 55.8202 33.7315 55.7063C33.7004 55.5912 33.6609 55.5147 33.6131 55.4768C33.5664 55.4376 33.5126 55.4181 33.4516 55.4181Z" fill="white"></path><path d="M36.3478 57.1581V57.6224H34.5803C34.5994 57.4469 34.6568 57.2808 34.7525 57.1243C34.8482 56.9665 35.0373 56.7578 35.3196 56.498C35.5469 56.2881 35.6862 56.1457 35.7377 56.071C35.8071 55.9678 35.8418 55.8658 35.8418 55.765C35.8418 55.6535 35.8113 55.5681 35.7502 55.5088C35.6904 55.4483 35.6073 55.4181 35.5008 55.4181C35.3955 55.4181 35.3118 55.4495 35.2496 55.5124C35.1874 55.5752 35.1515 55.6796 35.1419 55.8255L34.6395 55.7757C34.6694 55.5005 34.7633 55.303 34.9212 55.1832C35.0791 55.0634 35.2765 55.0035 35.5134 55.0035C35.773 55.0035 35.9769 55.0729 36.1253 55.2117C36.2736 55.3505 36.3478 55.523 36.3478 55.7294C36.3478 55.8468 36.3263 55.9589 36.2832 56.0657C36.2413 56.1712 36.1743 56.2821 36.0822 56.3984C36.0212 56.4755 35.9111 56.5864 35.752 56.7311C35.5929 56.8758 35.4918 56.9719 35.4488 57.0193C35.4069 57.0667 35.3728 57.113 35.3465 57.1581H36.3478Z" fill="white"></path><path d="M37.6793 57.6224V57.0976H36.6026V56.6599L37.7439 55.0035H38.1673V56.6581H38.4939V57.0976H38.1673V57.6224H37.6793ZM37.6793 56.6581V55.7668L37.0745 56.6581H37.6793Z" fill="white"></path><path d="M17.3824 61.3646H17.9136V62.7773C17.9136 63.0015 17.9202 63.1468 17.9333 63.2132C17.956 63.3199 18.0099 63.4059 18.0948 63.4712C18.1809 63.5352 18.2982 63.5672 18.4465 63.5672C18.5973 63.5672 18.7109 63.537 18.7875 63.4765C18.864 63.4148 18.9101 63.3395 18.9256 63.2505C18.9412 63.1616 18.949 63.0139 18.949 62.8075V61.3646H19.4801V62.7346C19.4801 63.0477 19.4658 63.2689 19.437 63.3982C19.4083 63.5275 19.3551 63.6366 19.2773 63.7256C19.2008 63.8145 19.0979 63.8857 18.9687 63.9391C18.8395 63.9913 18.6708 64.0173 18.4627 64.0173C18.2115 64.0173 18.0206 63.9889 17.8902 63.932C17.761 63.8738 17.6588 63.7991 17.5834 63.7078C17.508 63.6153 17.4584 63.5186 17.4345 63.4178C17.3998 63.2683 17.3824 63.0477 17.3824 62.7559V61.3646Z" fill="white"></path><path d="M19.9072 63.1242L20.424 63.0744C20.4551 63.2464 20.5179 63.3727 20.6124 63.4534C20.7081 63.534 20.8367 63.5743 20.9982 63.5743C21.1693 63.5743 21.2979 63.5388 21.384 63.4676C21.4713 63.3952 21.515 63.311 21.515 63.215C21.515 63.1533 21.4965 63.1011 21.4594 63.0584C21.4235 63.0145 21.3601 62.9766 21.2692 62.9445C21.207 62.9232 21.0652 62.8852 20.8439 62.8307C20.5592 62.7607 20.3594 62.6747 20.2445 62.5727C20.083 62.4292 20.0023 62.2542 20.0023 62.0478C20.0023 61.915 20.04 61.791 20.1153 61.676C20.1919 61.5598 20.3014 61.4714 20.4437 61.4109C20.5873 61.3504 20.7601 61.3202 20.9623 61.3202C21.2925 61.3202 21.5407 61.3919 21.707 61.5354C21.8745 61.679 21.9624 61.8705 21.9708 62.1101L21.4396 62.1332C21.4169 61.9992 21.3679 61.9031 21.2925 61.845C21.2183 61.7857 21.1065 61.7561 20.9569 61.7561C20.8026 61.7561 20.6818 61.7875 20.5945 61.8503C20.5382 61.8907 20.5101 61.9446 20.5101 62.0123C20.5101 62.0739 20.5364 62.1267 20.5891 62.1706C20.6561 62.2263 20.8188 62.2845 21.0772 62.345C21.3356 62.4054 21.5264 62.4683 21.6496 62.5335C21.774 62.5976 21.8709 62.686 21.9403 62.7986C22.0109 62.9101 22.0462 63.0483 22.0462 63.2132C22.0462 63.3626 22.0043 63.5026 21.9205 63.6331C21.8368 63.7635 21.7184 63.8608 21.5652 63.9248C21.4121 63.9877 21.2213 64.0191 20.9928 64.0191C20.6603 64.0191 20.4048 63.9432 20.2266 63.7914C20.0484 63.6384 19.9419 63.416 19.9072 63.1242Z" fill="white"></path><path d="M24.8652 63.9729H24.2874L24.0577 63.3804H23.0062L22.789 63.9729H22.2256L23.2502 61.3646H23.8119L24.8652 63.9729ZM23.8872 62.941L23.5248 61.9731L23.1695 62.941H23.8872Z" fill="white"></path></svg>