<svg xmlns="http://www.w3.org/2000/svg" width="910" height="149" fill="none"><g clip-path="url(#clip0_541:3876)"><path fill="#000" d="M888.001 61.2c11.9-4.8 20.2-15.3 20.2-27.8 0-16.2-13.4-29-29.7-29h-34.6c-1.5 0-2.6 1.2-2.6 2.6v90.2c0 1.4 1.1 2.6 2.6 2.6h5.3c1.4 0 2.6-1.2 2.6-2.6V62.4h25.4l18.1 36.1c.3.5 1 1.2 2.2 1.2h7c2.3 0 3.3-2.2 2.3-4l-18.8-34.5zm-36-7.7V14.4h25.8c10.5 0 19.6 8.9 19.6 19.2 0 11.2-9.1 19.9-19.6 19.9h-25.8zM553.2 90.7h-45.3V7c0-1.4-1.2-2.6-2.6-2.6H500c-1.5 0-2.6 1.2-2.6 2.6v90.2c0 1.4 1.1 2.6 2.6 2.6h53.2c1.5 0 2.6-1.2 2.6-2.6v-4c-.1-1.3-1.1-2.5-2.6-2.5zM581 4.4h-5.5c-1.4 0-2.6 1.2-2.6 2.6v90.2c0 1.4 1.2 2.6 2.6 2.6h5.5c1.4 0 2.6-1.2 2.6-2.6V7c-.1-1.4-1.3-2.6-2.6-2.6zM666.8 4.4H603c-1.5 0-2.6 1.2-2.6 2.6v4c0 1.4 1.1 2.6 2.6 2.6h26.7v83.7c0 1.4 1.2 2.6 2.6 2.6h5.2c1.4 0 2.6-1.2 2.6-2.6V13.6h26.7c1.5 0 2.6-1.2 2.6-2.6V7c0-1.4-1.1-2.6-2.6-2.6zM748.701 4.4h-63.8c-1.5 0-2.6 1.2-2.6 2.6v4c0 1.4 1.1 2.6 2.6 2.6h26.7v83.7c0 1.4 1.2 2.6 2.6 2.6h5.2c1.4 0 2.6-1.2 2.6-2.6V13.6h26.7c1.5 0 2.6-1.2 2.6-2.6V7c0-1.4-1.1-2.6-2.6-2.6zM818.901 4.4h-51.2c-1.5 0-2.6 1.2-2.6 2.6v90.2c0 1.4 1.1 2.6 2.6 2.6h51.2c1.5 0 2.6-1.2 2.6-2.6v-4c0-1.4-1.1-2.6-2.6-2.6h-43.3V55.8h36.6c1.4 0 2.6-1.1 2.6-2.6v-4c0-1.4-1.2-2.6-2.6-2.6h-36.6V13.3h43.3c1.5 0 2.6-1.2 2.6-2.6v-4c0-1.1-1.1-2.3-2.6-2.3z"></path><path fill="#11BCCA" d="M37.6 4.4H6C4.5 4.4 3.4 5.6 3.4 7v90.2c0 1.4 1.1 2.6 2.6 2.6h5.2c1.4 0 2.6-1.2 2.6-2.6v-32h23.9c16.6 0 30.4-13.8 30.4-30.7C68.2 18 54.4 4.4 37.6 4.4zM37 55.1H13.9V14.8H37c11.2 0 20.7 8.5 20.7 19.5 0 11.7-9.6 20.8-20.7 20.8zM170.8 99.8H222c1.5 0 2.6-1.2 2.6-2.6v-4c0-1.4-1.1-2.6-2.6-2.6h-43.3V55.8h39.6c1.4 0 2.6-1.1 2.6-2.6v-4c0-1.4-1.2-2.6-2.6-2.6h-39.6V13.3H222c1.5 0 2.6-1.2 2.6-2.6v-4c0-1.4-1.1-2.6-2.6-2.6h-51.2c-1.5 0-2.6 1.2-2.6 2.6v90.2c0 1.7 1.1 2.9 2.6 2.9zM302.501 4.4h-63.8c-1.5 0-2.6 1.2-2.6 2.6v4c0 1.4 1.1 2.6 2.6 2.6h26.7v83.7c0 1.4 1.2 2.6 2.6 2.6h5.2c1.4 0 2.6-1.2 2.6-2.6V13.6h26.7c1.5 0 2.6-1.2 2.6-2.6V7c0-1.4-1.1-2.6-2.6-2.6zM383.201 4.4h-63.8c-1.5 0-2.6 1.2-2.6 2.6v4c0 1.4 1.1 2.6 2.6 2.6h26.7v83.7c0 1.4 1.2 2.6 2.6 2.6h5.2c1.4 0 2.6-1.2 2.6-2.6V13.6h26.7c1.5 0 2.6-1.2 2.6-2.6V7c0-1.4-1.1-2.6-2.6-2.6zM471 4.4h-6.4c-1 0-1.8.7-2.2 1.2l-27.5 38-27.5-38c-.4-.5-1.2-1.2-2.2-1.2h-6.4c-2.2 0-3.3 2.2-2.2 4l32.9 45.5v43.3c0 1.4 1.1 2.6 2.6 2.6h5.3c1.4 0 2.6-1.2 2.6-2.6V53.7l33.3-45.4c.9-1.7-.1-3.9-2.3-3.9z"></path><path fill="#11BCCA" d="M219.901 128.8c-1.5-2-4.3-2.3-6.3-.8-6.2 4.6-14.2 8.4-24.7 8.4-24.9 0-37.4-22.6-50.8-48.8l-1.4-2.7c-2-4-7.5-16.9-11.7-24.5 15-2.7 23-15.4 23-28 0-16.2-13.4-28-29.7-28h-32.6c-1.5 0-2.6 1.2-2.6 2.6v90.2c0 1.4 1.1 2.6 2.6 2.6H91c1.4 0 2.6-1.2 2.6-2.6V61.4h20.8c3.7 6.7 11 23.5 13.7 28.8l1.4 2.7c14.1 27.6 28.4 52.8 59.1 52.8 12.9 0 22.8-4.3 30.7-10.4 2-1.5 2.3-4.4.8-6.4l-.2-.1zM93.701 14.4h23.8c10.5 0 19.6 7.9 19.6 18.2 0 13.3-11.7 19.9-25.5 19.9h-17.9V14.4z"></path></g><defs><clipPath id="clip0_541:3876"><path fill="#fff" d="M0 0h910v149H0z"></path></clipPath></defs></svg>