<svg xmlns="http://www.w3.org/2000/svg" width="500" height="104" viewBox="0 0 500 104" fill="none"><path d="M63.2004 22.0655V81.863H43.2017V75.464C40.9919 77.8912 38.3401 79.73 35.2464 80.9804C32.1526 82.2308 28.8748 82.856 25.4127 82.856C17.6784 82.856 11.491 80.5759 6.85039 76.0157C2.28346 71.4555 0 64.6152 0 55.4948V22.0655H20.9931V52.0746C20.9931 56.5613 21.8402 59.8343 23.5344 61.8938C25.2286 63.9532 27.6962 64.9829 30.9373 64.9829C34.252 64.9829 36.9406 63.8429 39.003 61.5628C41.1392 59.2091 42.2072 55.6419 42.2072 50.861V22.0655H63.2004Z" fill="#0B284D"></path><path d="M114.4 21.0726C119.85 21.0726 124.786 22.3597 129.205 24.934C133.699 27.4348 137.234 31.0388 139.812 35.7461C142.464 40.3799 143.79 45.7859 143.79 51.9643C143.79 58.1426 142.464 63.5854 139.812 68.2927C137.234 72.9265 133.699 76.5305 129.205 79.1048C124.786 81.6056 119.85 82.856 114.4 82.856C107.402 82.856 101.841 80.7598 97.7156 76.5673V103.267H76.7225V22.0655H96.7212V28.0232C100.625 23.3894 106.518 21.0726 114.4 21.0726ZM109.98 66.1965C113.663 66.1965 116.683 64.9462 119.04 62.4454C121.397 59.8711 122.576 56.3774 122.576 51.9643C122.576 47.5512 121.397 44.0942 119.04 41.5935C116.683 39.0192 113.663 37.732 109.98 37.732C106.297 37.732 103.277 39.0192 100.92 41.5935C98.5627 44.0942 97.3841 47.5512 97.3841 51.9643C97.3841 56.3774 98.5627 59.8711 100.92 62.4454C103.277 64.9462 106.297 66.1965 109.98 66.1965Z" fill="#0B284D"></path><path d="M184.153 82.856C177.524 82.856 171.594 81.5321 166.365 78.8842C161.135 76.2363 157.047 72.5588 154.1 67.8514C151.227 63.1441 149.791 57.8116 149.791 51.8539C149.791 45.8963 151.227 40.6005 154.1 35.9668C157.047 31.2595 161.135 27.6187 166.365 25.0444C171.594 22.3965 177.524 21.0726 184.153 21.0726C190.93 21.0726 196.786 22.5436 201.721 25.4857C206.657 28.3542 210.155 32.3627 212.218 37.5114L195.976 45.7859C193.25 40.4167 189.273 37.732 184.043 37.732C180.286 37.732 177.156 38.9824 174.651 41.4832C172.221 43.9839 171.005 47.4408 171.005 51.8539C171.005 56.3406 172.221 59.8711 174.651 62.4454C177.156 64.9462 180.286 66.1965 184.043 66.1965C189.273 66.1965 193.25 63.5119 195.976 58.1426L212.218 66.4172C210.155 71.5658 206.657 75.6112 201.721 78.5532C196.786 81.4217 190.93 82.856 184.153 82.856Z" fill="#0B284D"></path><path d="M249.528 82.856C243.12 82.856 237.337 81.5321 232.181 78.8842C227.025 76.2363 222.974 72.5588 220.027 67.8514C217.155 63.1441 215.718 57.8116 215.718 51.8539C215.718 45.9698 217.155 40.6741 220.027 35.9668C222.974 31.2595 226.988 27.6187 232.071 25.0444C237.227 22.3965 243.046 21.0726 249.528 21.0726C256.01 21.0726 261.83 22.3965 266.986 25.0444C272.142 27.6187 276.156 31.2595 279.029 35.9668C281.902 40.6005 283.338 45.8963 283.338 51.8539C283.338 57.8116 281.902 63.1441 279.029 67.8514C276.156 72.5588 272.142 76.2363 266.986 78.8842C261.83 81.5321 256.01 82.856 249.528 82.856ZM249.528 66.1965C253.211 66.1965 256.231 64.9462 258.588 62.4454C260.946 59.8711 262.124 56.3406 262.124 51.8539C262.124 47.4408 260.946 43.9839 258.588 41.4832C256.231 38.9824 253.211 37.732 249.528 37.732C245.845 37.732 242.825 38.9824 240.468 41.4832C238.111 43.9839 236.932 47.4408 236.932 51.8539C236.932 56.3406 238.111 59.8711 240.468 62.4454C242.825 64.9462 245.845 66.1965 249.528 66.1965Z" fill="#0B284D"></path><path d="M356.374 22.0655V81.863H336.375V75.9054C332.471 80.5391 326.578 82.856 318.697 82.856C313.246 82.856 308.274 81.6056 303.781 79.1048C299.361 76.5305 295.825 72.8897 293.174 68.1824C290.596 63.4751 289.306 58.0323 289.306 51.8539C289.306 45.6756 290.596 40.2696 293.174 35.6358C295.825 30.9285 299.361 27.3245 303.781 24.8237C308.274 22.3229 313.246 21.0726 318.697 21.0726C325.768 21.0726 331.33 23.132 335.381 27.2509V22.0655H356.374ZM323.116 66.1965C326.799 66.1965 329.819 64.9462 332.177 62.4454C334.534 59.8711 335.712 56.3406 335.712 51.8539C335.712 47.4408 334.534 43.9839 332.177 41.4832C329.819 38.9824 326.799 37.732 323.116 37.732C319.433 37.732 316.413 38.9824 314.056 41.4832C311.699 43.9839 310.521 47.4408 310.521 51.8539C310.521 56.3406 311.699 59.8711 314.056 62.4454C316.413 64.9462 319.433 66.1965 323.116 66.1965Z" fill="#0B284D"></path><path d="M400.494 82.856C393.865 82.856 387.935 81.5321 382.705 78.8842C377.475 76.2363 373.387 72.5588 370.441 67.8514C367.568 63.1441 366.132 57.8116 366.132 51.8539C366.132 45.8963 367.568 40.6005 370.441 35.9668C373.387 31.2595 377.475 27.6187 382.705 25.0444C387.935 22.3965 393.865 21.0726 400.494 21.0726C407.271 21.0726 413.127 22.5436 418.062 25.4857C422.997 28.3542 426.496 32.3627 428.559 37.5114L412.317 45.7859C409.591 40.4167 405.613 37.732 400.384 37.732C396.627 37.732 393.496 38.9824 390.992 41.4832C388.561 43.9839 387.346 47.4408 387.346 51.8539C387.346 56.3406 388.561 59.8711 390.992 62.4454C393.496 64.9462 396.627 66.1965 400.384 66.1965C405.613 66.1965 409.591 63.5119 412.317 58.1426L428.559 66.4172C426.496 71.5658 422.997 75.6112 418.062 78.5532C413.127 81.4217 407.271 82.856 400.494 82.856Z" fill="#0B284D"></path><path d="M475.25 21.0726C482.69 21.0726 488.656 23.2791 493.15 27.6922C497.717 32.1053 500 38.7617 500 47.6615V81.863H479.007V51.0816C479.007 42.9174 475.729 38.8353 469.173 38.8353C465.564 38.8353 462.654 40.0121 460.445 42.3658C458.308 44.7194 457.24 48.2499 457.24 52.9572V81.863H436.247V0H457.24V27.5819C459.524 25.4489 462.212 23.8308 465.306 22.7275C468.4 21.6242 471.714 21.0726 475.25 21.0726Z" fill="#0B284D"></path></svg>